<svg xmlns="http://www.w3.org/2000/svg" viewBox="0 0 1200 630" width="1200" height="630" font-family="Inter, DejaVu Sans, sans-serif">
  <defs>
    <linearGradient id="bg" x1="0" y1="0" x2="1" y2="1"><stop offset="0%" stop-color="#0E1F3A"/><stop offset="55%" stop-color="#08152A"/><stop offset="100%" stop-color="#06101F"/></linearGradient>
    <radialGradient id="glow" cx="0.18" cy="0.05" r="0.75"><stop offset="0%" stop-color="#1F3A68" stop-opacity="0.85"/><stop offset="100%" stop-color="#06101F" stop-opacity="0"/></radialGradient>
    <radialGradient id="glow2" cx="0.9" cy="1" r="0.6"><stop offset="0%" stop-color="#2E75B6" stop-opacity="0.35"/><stop offset="100%" stop-color="#06101F" stop-opacity="0"/></radialGradient>
    <marker id="mk" markerWidth="10" markerHeight="10" refX="7" refY="3" orient="auto"><path d="M0,0 L0,6 L7,3 z" fill="#7DD3FC"/></marker>
  </defs>
  <rect width="1200" height="630" fill="url(#bg)"/><rect width="1200" height="630" fill="url(#glow)"/><rect width="1200" height="630" fill="url(#glow2)"/>
  <text x="70" y="140" fill="#7DD3FC" font-size="19" font-weight="700" letter-spacing="4.5" font-family="JetBrains Mono, DejaVu Sans Mono, monospace">PARTE 1 · LA GUÍA</text>
<text x="70" y="236" fill="#F1F5F9" font-size="58" font-weight="800" letter-spacing="-1.4">Loop</text><text x="70" y="302" fill="#F1F5F9" font-size="58" font-weight="800" letter-spacing="-1.4">engineering</text>
  <rect x="70" y="328" width="86" height="4" rx="2" fill="#7DD3FC"/>
<text x="70" y="386" fill="#94A3B8" font-size="24">Las 5 palancas de un loop</text><text x="70" y="420" fill="#94A3B8" font-size="24">de agente confiable</text>
  <text x="70" y="580" fill="#4FA9E8" font-size="18" font-weight="600" letter-spacing="1.5" font-family="JetBrains Mono, DejaVu Sans Mono, monospace">NERY CANO · neryc.github.io</text>
  <g font-family="JetBrains Mono, DejaVu Sans Mono, monospace">
    <circle cx="960" cy="300" r="86" fill="none" stroke="#2E75B6" stroke-width="3" stroke-dasharray="7 10"/>
    <circle cx="960" cy="214" r="7" fill="#7DD3FC"/>
    <text x="960" y="305" text-anchor="middle" fill="#7DD3FC" font-size="15">loop</text>
    <g fill="#0E2A44" stroke="#7DD3FC" stroke-width="1.6">
      <circle cx="820" cy="200" r="26"/><circle cx="1100" cy="200" r="26"/><circle cx="1128" cy="330" r="26"/><circle cx="960" cy="440" r="26"/><circle cx="792" cy="330" r="26"/>
    </g>
    <g fill="#E2E8F0" font-size="13" text-anchor="middle">
      <text x="820" y="205">1</text><text x="1100" y="205">2</text><text x="1128" y="335">3</text><text x="960" y="445">4</text><text x="792" y="335">5</text>
    </g>
    <text x="960" y="510" text-anchor="middle" fill="#94A3B8" font-size="15">5 palancas alrededor del loop</text>
  </g>
</svg>