<svg xmlns="http://www.w3.org/2000/svg" viewBox="0 0 1200 630" width="1200" height="630" font-family="Inter, DejaVu Sans, sans-serif">
  <defs>
    <linearGradient id="bg" x1="0" y1="0" x2="1" y2="1"><stop offset="0%" stop-color="#0E1F3A"/><stop offset="55%" stop-color="#08152A"/><stop offset="100%" stop-color="#06101F"/></linearGradient>
    <radialGradient id="glow" cx="0.18" cy="0.05" r="0.75"><stop offset="0%" stop-color="#1F3A68" stop-opacity="0.85"/><stop offset="100%" stop-color="#06101F" stop-opacity="0"/></radialGradient>
    <radialGradient id="glow2" cx="0.9" cy="1" r="0.6"><stop offset="0%" stop-color="#2E75B6" stop-opacity="0.35"/><stop offset="100%" stop-color="#06101F" stop-opacity="0"/></radialGradient>
    <marker id="mk" markerWidth="10" markerHeight="10" refX="7" refY="3" orient="auto"><path d="M0,0 L0,6 L7,3 z" fill="#7DD3FC"/></marker>
  </defs>
  <rect width="1200" height="630" fill="url(#bg)"/><rect width="1200" height="630" fill="url(#glow)"/><rect width="1200" height="630" fill="url(#glow2)"/>
  <text x="70" y="140" fill="#7DD3FC" font-size="19" font-weight="700" letter-spacing="4.5" font-family="JetBrains Mono, DejaVu Sans Mono, monospace">PART 2 · THE BUILD</text>
<text x="70" y="236" fill="#F1F5F9" font-size="56" font-weight="800" letter-spacing="-1.4">The AI research</text><text x="70" y="302" fill="#F1F5F9" font-size="56" font-weight="800" letter-spacing="-1.4">agent I built</text>
  <rect x="70" y="328" width="86" height="4" rx="2" fill="#7DD3FC"/>
<text x="70" y="386" fill="#94A3B8" font-size="24">From a question to a</text><text x="70" y="420" fill="#94A3B8" font-size="24">cited answer</text>
  <text x="70" y="580" fill="#4FA9E8" font-size="18" font-weight="600" letter-spacing="1.5" font-family="JetBrains Mono, DejaVu Sans Mono, monospace">NERY CANO · neryc.github.io</text>
  <g font-family="JetBrains Mono, DejaVu Sans Mono, monospace">
    <rect x="812" y="150" width="150" height="50" rx="10" fill="#122845" stroke="#4FA9E8" stroke-width="2"/><text x="887" y="180" text-anchor="middle" fill="#E2E8F0" font-size="14">question</text>
    <rect x="812" y="228" width="150" height="44" rx="9" fill="#0E1F3A" stroke="#94A3B8" stroke-width="1.6"/><text x="887" y="255" text-anchor="middle" fill="#94A3B8" font-size="13">searchWeb</text>
    <rect x="812" y="286" width="150" height="44" rx="9" fill="#0E1F3A" stroke="#94A3B8" stroke-width="1.6"/><text x="887" y="313" text-anchor="middle" fill="#94A3B8" font-size="13">readPage</text>
    <rect x="1008" y="228" width="140" height="102" rx="12" fill="#1F3A68" stroke="#7DD3FC" stroke-width="2.2"/><text x="1078" y="272" text-anchor="middle" fill="#7DD3FC" font-size="13">finalAnswer</text><text x="1078" y="296" text-anchor="middle" fill="#94A3B8" font-size="11">{ answer, sources }</text>
    <line x1="887" y1="200" x2="887" y2="226" stroke="#7DD3FC" stroke-width="1.8" marker-end="url(#mk)"/>
    <path d="M962,250 C985,250 985,272 1006,275" fill="none" stroke="#7DD3FC" stroke-width="1.8" marker-end="url(#mk)"/>
    <path d="M962,308 C985,308 985,286 1006,283" fill="none" stroke="#7DD3FC" stroke-width="1.8" marker-end="url(#mk)"/>
    <text x="887" y="392" text-anchor="middle" fill="#94A3B8" font-size="12">ToolLoopAgent · stepCountIs(8)</text>
  </g>
</svg>