<svg xmlns="http://www.w3.org/2000/svg" viewBox="0 0 1200 630" width="1200" height="630" font-family="Inter, DejaVu Sans, sans-serif">
  <defs>
    <linearGradient id="bg" x1="0" y1="0" x2="1" y2="1">
      <stop offset="0%" stop-color="#0E1F3A"/><stop offset="55%" stop-color="#08152A"/><stop offset="100%" stop-color="#06101F"/>
    </linearGradient>
    <radialGradient id="glow" cx="0.18" cy="0.05" r="0.75">
      <stop offset="0%" stop-color="#1F3A68" stop-opacity="0.85"/><stop offset="100%" stop-color="#06101F" stop-opacity="0"/>
    </radialGradient>
    <radialGradient id="glow2" cx="0.9" cy="1" r="0.6">
      <stop offset="0%" stop-color="#2E75B6" stop-opacity="0.35"/><stop offset="100%" stop-color="#06101F" stop-opacity="0"/>
    </radialGradient>
  </defs>
  <rect width="1200" height="630" fill="url(#bg)"/>
  <rect width="1200" height="630" fill="url(#glow)"/>
  <rect width="1200" height="630" fill="url(#glow2)"/>
  <text x="70" y="140" fill="#7DD3FC" font-size="19" font-weight="700" letter-spacing="4.5" font-family="JetBrains Mono, DejaVu Sans Mono, monospace">PART 2 · THE BUILD</text>
<text x="70" y="248" fill="#F1F5F9" font-size="58" font-weight="800" letter-spacing="-1.4">The MCP server</text><text x="70" y="316" fill="#F1F5F9" font-size="58" font-weight="800" letter-spacing="-1.4">and widget</text><text x="70" y="384" fill="#F1F5F9" font-size="58" font-weight="800" letter-spacing="-1.4">I built</text>
  <rect x="70" y="422" width="86" height="4" rx="2" fill="#7DD3FC"/>
<text x="70" y="482" fill="#94A3B8" font-size="25">9 tools, 3 prompts, and six bugs</text><text x="70" y="516" fill="#94A3B8" font-size="25">that broke production</text>
  <text x="70" y="580" fill="#4FA9E8" font-size="18" font-weight="600" letter-spacing="1.5" font-family="JetBrains Mono, DejaVu Sans Mono, monospace">NERY CANO · neryc.github.io</text>
  <g font-family="JetBrains Mono, DejaVu Sans Mono, monospace">
    <rect x="798" y="152" width="156" height="44" rx="9" fill="#122845" stroke="#4FA9E8" stroke-width="2"/><text x="876" y="180" text-anchor="middle" fill="#E2E8F0" font-size="15">9 tools</text>
    <rect x="798" y="212" width="156" height="44" rx="9" fill="#122845" stroke="#4FA9E8" stroke-width="2"/><text x="876" y="240" text-anchor="middle" fill="#E2E8F0" font-size="15">171 resources</text>
    <rect x="798" y="272" width="156" height="44" rx="9" fill="#122845" stroke="#4FA9E8" stroke-width="2"/><text x="876" y="300" text-anchor="middle" fill="#E2E8F0" font-size="15">3 prompts</text>
    <rect x="1004" y="182" width="132" height="104" rx="12" fill="#1F3A68" stroke="#7DD3FC" stroke-width="2"/>
    <text x="1070" y="228" text-anchor="middle" fill="#7DD3FC" font-size="14">portfolio</text>
    <text x="1070" y="250" text-anchor="middle" fill="#7DD3FC" font-size="14">-mcp</text>
    <path d="M954,174 C980,180 984,220 1004,228" fill="none" stroke="#7DD3FC" stroke-width="2"/>
    <path d="M954,234 L1004,234" fill="none" stroke="#7DD3FC" stroke-width="2"/>
    <path d="M954,294 C980,288 984,248 1004,240" fill="none" stroke="#7DD3FC" stroke-width="2"/>
    <circle cx="1070" cy="404" r="34" fill="#2E75B6" stroke="#7DD3FC" stroke-width="2"/>
    <path d="M1052,392 h36 a5,5 0 0 1 5,5 v16 a5,5 0 0 1 -5,5 h-20 l-11,9 v-9 h-5 a5,5 0 0 1 -5,-5 v-16 a5,5 0 0 1 5,-5 z" fill="#F1F5F9"/>
    <line x1="1070" y1="286" x2="1070" y2="370" stroke="#94A3B8" stroke-width="1.8" stroke-dasharray="5 5"/>
    <text x="1070" y="474" text-anchor="middle" fill="#94A3B8" font-size="13">embeddable widget</text>
  </g>
</svg>