<svg xmlns="http://www.w3.org/2000/svg" viewBox="0 0 1200 630" width="1200" height="630" font-family="Inter, DejaVu Sans, sans-serif">
  <defs>
    <linearGradient id="bg" x1="0" y1="0" x2="1" y2="1"><stop offset="0%" stop-color="#0E1F3A"/><stop offset="55%" stop-color="#08152A"/><stop offset="100%" stop-color="#06101F"/></linearGradient>
    <radialGradient id="glow" cx="0.18" cy="0.05" r="0.75"><stop offset="0%" stop-color="#1F3A68" stop-opacity="0.85"/><stop offset="100%" stop-color="#06101F" stop-opacity="0"/></radialGradient>
    <radialGradient id="glow2" cx="0.85" cy="0.9" r="0.6"><stop offset="0%" stop-color="#2E75B6" stop-opacity="0.35"/><stop offset="100%" stop-color="#06101F" stop-opacity="0"/></radialGradient>
  </defs>
  <rect width="1200" height="630" fill="url(#bg)"/><rect width="1200" height="630" fill="url(#glow)"/><rect width="1200" height="630" fill="url(#glow2)"/>
  <g>
    <g fill="#4FA9E8" opacity="0.85"><circle cx="880" cy="150" r="9"/><circle cx="930" cy="190" r="9"/><circle cx="860" cy="205" r="9"/><circle cx="915" cy="135" r="9"/></g>
    <g fill="#F4A259" opacity="0.85"><circle cx="1080" cy="430" r="9"/><circle cx="1120" cy="470" r="9"/><circle cx="1050" cy="475" r="9"/></g>
    <g fill="#7DD3FC"><circle cx="960" cy="360" r="9"/><circle cx="1010" cy="390" r="9"/><circle cx="940" cy="410" r="9"/><circle cx="1030" cy="335" r="9"/></g>
    <g stroke="#7DD3FC" stroke-width="2" opacity="0.7"><line x1="995" y1="365" x2="960" y2="360"/><line x1="995" y1="365" x2="1010" y2="390"/><line x1="995" y1="365" x2="1030" y2="335"/></g>
    <circle cx="995" cy="365" r="13" fill="#F1F5F9"/>
    <text x="995" y="320" text-anchor="middle" fill="#F1F5F9" font-size="19">your question</text>
  </g>
  <text x="80" y="150" fill="#7DD3FC" font-size="20" font-weight="700" letter-spacing="5" font-family="JetBrains Mono, DejaVu Sans Mono, monospace">GUIDE · RAG</text>
  <text x="80" y="270" fill="#F1F5F9" font-size="74" font-weight="800" letter-spacing="-1.8">RAG from scratch</text>
  <rect x="80" y="312" width="86" height="4" rx="2" fill="#7DD3FC"/>
  <text x="80" y="380" fill="#94A3B8" font-size="28">What it is, the alternatives,</text>
  <text x="80" y="418" fill="#94A3B8" font-size="28">and how to actually build it</text>
  <text x="80" y="500" fill="#4FA9E8" font-size="18" font-weight="600" letter-spacing="1.5" font-family="JetBrains Mono, DejaVu Sans Mono, monospace">embeddings · pgvector · retrieval · citations</text>
  <text x="80" y="558" fill="#4FA9E8" font-size="18" font-weight="600" letter-spacing="1.5" font-family="JetBrains Mono, DejaVu Sans Mono, monospace">NERY CANO · neryc.github.io</text>
</svg>
