<svg xmlns="http://www.w3.org/2000/svg" viewBox="0 0 1200 630" width="1200" height="630" font-family="Inter, DejaVu Sans, sans-serif">
  <defs>
    <linearGradient id="bg" x1="0" y1="0" x2="1" y2="1">
      <stop offset="0%" stop-color="#0E1F3A"/>
      <stop offset="55%" stop-color="#08152A"/>
      <stop offset="100%" stop-color="#06101F"/>
    </linearGradient>
    <radialGradient id="glow" cx="0.18" cy="0.05" r="0.75">
      <stop offset="0%" stop-color="#1F3A68" stop-opacity="0.85"/>
      <stop offset="100%" stop-color="#06101F" stop-opacity="0"/>
    </radialGradient>
    <radialGradient id="glow2" cx="0.9" cy="1" r="0.6">
      <stop offset="0%" stop-color="#2E75B6" stop-opacity="0.35"/>
      <stop offset="100%" stop-color="#06101F" stop-opacity="0"/>
    </radialGradient>
  </defs>

  <rect width="1200" height="630" fill="url(#bg)"/>
  <rect width="1200" height="630" fill="url(#glow)"/>
  <rect width="1200" height="630" fill="url(#glow2)"/>

  <g opacity="0.9">
    <rect x="880" y="245" width="150" height="140" rx="14" fill="#122845" stroke="#7DD3FC" stroke-width="2"/>
    <text x="955" y="308" text-anchor="middle" fill="#7DD3FC" font-size="17" font-weight="700" letter-spacing="1">MODELO</text>
    <text x="955" y="336" text-anchor="middle" fill="#94A3B8" font-size="14">capaz · ciego</text>

    <g stroke="#4FA9E8" stroke-width="2.5" opacity="0.75">
      <path d="M880,275 L800,215" /><path d="M1030,275 L1110,215" />
      <path d="M880,355 L800,415" /><path d="M1030,355 L1110,415" />
    </g>
    <g fill="#0E1F3A" stroke="#7DD3FC" stroke-width="2">
      <circle cx="794" cy="209" r="17"/><circle cx="1116" cy="209" r="17"/>
      <circle cx="794" cy="421" r="17"/><circle cx="1116" cy="421" r="17"/>
    </g>
    <g fill="#94A3B8" font-size="12" font-weight="600" text-anchor="middle" letter-spacing="1">
      <text x="794" y="182">GUÍAS</text>
      <text x="1116" y="182">SENSORES</text>
      <text x="794" y="456">LÍMITES</text>
      <text x="1116" y="456">TRAZAS</text>
    </g>
  </g>

  <text x="80" y="140" fill="#7DD3FC" font-size="19" font-weight="700" letter-spacing="4.5" font-family="JetBrains Mono, DejaVu Sans Mono, monospace">PARTE 1 · TEORÍA</text>

  <text x="80" y="252" fill="#F1F5F9" font-size="66" font-weight="800" letter-spacing="-1.6">Harness</text>
  <text x="80" y="326" fill="#F1F5F9" font-size="66" font-weight="800" letter-spacing="-1.6">Engineering</text>

  <rect x="80" y="366" width="86" height="4" rx="2" fill="#7DD3FC"/>

  <text x="80" y="428" fill="#94A3B8" font-size="27">Cómo diseñar repos donde la IA</text>
  <text x="80" y="466" fill="#94A3B8" font-size="27">no la caga</text>

  <text x="80" y="556" fill="#4FA9E8" font-size="18" font-weight="600" letter-spacing="1.5" font-family="JetBrains Mono, DejaVu Sans Mono, monospace">NERY CANO · neryc.github.io</text>
</svg>
