<svg xmlns="http://www.w3.org/2000/svg" viewBox="0 0 1200 630" width="1200" height="630" font-family="Inter, DejaVu Sans, sans-serif">
  <defs>
    <linearGradient id="bg" x1="0" y1="0" x2="1" y2="1"><stop offset="0%" stop-color="#0E1F3A"/><stop offset="55%" stop-color="#08152A"/><stop offset="100%" stop-color="#06101F"/></linearGradient>
    <radialGradient id="glow" cx="0.18" cy="0.05" r="0.75"><stop offset="0%" stop-color="#1F3A68" stop-opacity="0.85"/><stop offset="100%" stop-color="#06101F" stop-opacity="0"/></radialGradient>
    <radialGradient id="glow2" cx="0.9" cy="1" r="0.6"><stop offset="0%" stop-color="#2E75B6" stop-opacity="0.35"/><stop offset="100%" stop-color="#06101F" stop-opacity="0"/></radialGradient>
    <marker id="mk" markerWidth="10" markerHeight="10" refX="7" refY="3" orient="auto"><path d="M0,0 L0,6 L7,3 z" fill="#7DD3FC"/></marker>
  </defs>
  <rect width="1200" height="630" fill="url(#bg)"/><rect width="1200" height="630" fill="url(#glow)"/><rect width="1200" height="630" fill="url(#glow2)"/>
  <text x="70" y="140" fill="#7DD3FC" font-size="19" font-weight="700" letter-spacing="4.5" font-family="JetBrains Mono, DejaVu Sans Mono, monospace">PART 1 · THE GUIDE</text>
<text x="70" y="236" fill="#F1F5F9" font-size="56" font-weight="800" letter-spacing="-1.4">Agent loops</text><text x="70" y="302" fill="#F1F5F9" font-size="56" font-weight="800" letter-spacing="-1.4">from zero</text>
  <rect x="70" y="328" width="86" height="4" rx="2" fill="#7DD3FC"/>
<text x="70" y="386" fill="#94A3B8" font-size="24">How an AI agent uses tools</text><text x="70" y="420" fill="#94A3B8" font-size="24">and knows when to stop</text>
  <text x="70" y="580" fill="#4FA9E8" font-size="18" font-weight="600" letter-spacing="1.5" font-family="JetBrains Mono, DejaVu Sans Mono, monospace">NERY CANO · neryc.github.io</text>
  <g font-family="JetBrains Mono, DejaVu Sans Mono, monospace">
    <rect x="840" y="150" width="150" height="54" rx="11" fill="#1F3A68" stroke="#7DD3FC" stroke-width="2"/>
    <text x="915" y="183" text-anchor="middle" fill="#7DD3FC" font-size="16">agent loop</text>
    <circle cx="838" cy="330" r="30" fill="#122845" stroke="#4FA9E8" stroke-width="2"/><text x="838" y="335" text-anchor="middle" fill="#E2E8F0" font-size="12">search</text>
    <circle cx="945" cy="360" r="30" fill="#122845" stroke="#4FA9E8" stroke-width="2"/><text x="945" y="365" text-anchor="middle" fill="#E2E8F0" font-size="12">read</text>
    <circle cx="1058" cy="330" r="34" fill="#0E2A44" stroke="#7DD3FC" stroke-width="2.4"/><text x="1058" y="327" text-anchor="middle" fill="#7DD3FC" font-size="11">finish</text><text x="1058" y="343" text-anchor="middle" fill="#F87171" font-size="9">no execute</text>
    <line x1="892" y1="200" x2="850" y2="302" stroke="#94A3B8" stroke-width="1.8" marker-end="url(#mk)"/>
    <line x1="915" y1="204" x2="945" y2="328" stroke="#94A3B8" stroke-width="1.8" marker-end="url(#mk)"/>
    <line x1="962" y1="200" x2="1045" y2="300" stroke="#7DD3FC" stroke-width="1.8" marker-end="url(#mk)"/>
    <path d="M808,352 C740,420 760,150 838,150 L838,150" fill="none" stroke="#94A3B8" stroke-width="1.6" stroke-dasharray="5 5" marker-end="url(#mk)"/>
    <text x="742" y="300" fill="#94A3B8" font-size="11">loop</text>
    <text x="915" y="452" text-anchor="middle" fill="#94A3B8" font-size="12">the model picks a tool each step</text>
  </g>
</svg>