<svg xmlns="http://www.w3.org/2000/svg" viewBox="0 0 1200 630" width="1200" height="630" font-family="Inter, DejaVu Sans, sans-serif">
  <defs>
    <linearGradient id="bg" x1="0" y1="0" x2="1" y2="1">
      <stop offset="0%" stop-color="#0E1F3A"/><stop offset="55%" stop-color="#08152A"/><stop offset="100%" stop-color="#06101F"/>
    </linearGradient>
    <radialGradient id="glow" cx="0.18" cy="0.05" r="0.75">
      <stop offset="0%" stop-color="#1F3A68" stop-opacity="0.85"/><stop offset="100%" stop-color="#06101F" stop-opacity="0"/>
    </radialGradient>
    <radialGradient id="glow2" cx="0.9" cy="1" r="0.6">
      <stop offset="0%" stop-color="#2E75B6" stop-opacity="0.35"/><stop offset="100%" stop-color="#06101F" stop-opacity="0"/>
    </radialGradient>
  </defs>
  <rect width="1200" height="630" fill="url(#bg)"/>
  <rect width="1200" height="630" fill="url(#glow)"/>
  <rect width="1200" height="630" fill="url(#glow2)"/>
  <text x="70" y="140" fill="#7DD3FC" font-size="19" font-weight="700" letter-spacing="4.5" font-family="JetBrains Mono, DejaVu Sans Mono, monospace">PART 1 · THE GUIDE</text>
<text x="70" y="248" fill="#F1F5F9" font-size="58" font-weight="800" letter-spacing="-1.4">MCP,</text><text x="70" y="316" fill="#F1F5F9" font-size="58" font-weight="800" letter-spacing="-1.4">from zero</text>
  <rect x="70" y="422" width="86" height="4" rx="2" fill="#7DD3FC"/>
<text x="70" y="482" fill="#94A3B8" font-size="25">What it is, what it solves,</text><text x="70" y="516" fill="#94A3B8" font-size="25">and when to reach for it</text>
  <text x="70" y="580" fill="#4FA9E8" font-size="18" font-weight="600" letter-spacing="1.5" font-family="JetBrains Mono, DejaVu Sans Mono, monospace">NERY CANO · neryc.github.io</text>
  <g font-family="JetBrains Mono, DejaVu Sans Mono, monospace">
    <rect x="838" y="150" width="128" height="50" rx="10" fill="#1F3A68" stroke="#7DD3FC" stroke-width="2"/>
    <text x="902" y="181" text-anchor="middle" fill="#7DD3FC" font-size="15">host + LLM</text>
    <rect x="812" y="272" width="180" height="38" rx="8" fill="#122845" stroke="#4FA9E8" stroke-width="2"/>
    <text x="902" y="297" text-anchor="middle" fill="#E2E8F0" font-size="14">MCP</text>
    <line x1="902" y1="200" x2="902" y2="272" stroke="#7DD3FC" stroke-width="2.2"/>
    <rect x="782" y="400" width="104" height="44" rx="9" fill="#0E1F3A" stroke="#4FA9E8" stroke-width="1.8"/>
    <text x="834" y="428" text-anchor="middle" fill="#94A3B8" font-size="13">server</text>
    <rect x="900" y="400" width="104" height="44" rx="9" fill="#0E1F3A" stroke="#4FA9E8" stroke-width="1.8"/>
    <text x="952" y="428" text-anchor="middle" fill="#94A3B8" font-size="13">server</text>
    <rect x="1018" y="400" width="104" height="44" rx="9" fill="#0E1F3A" stroke="#4FA9E8" stroke-width="1.8"/>
    <text x="1070" y="428" text-anchor="middle" fill="#94A3B8" font-size="13">server</text>
    <path d="M868,310 C868,350 834,360 834,400" fill="none" stroke="#94A3B8" stroke-width="1.8"/>
    <line x1="952" y1="310" x2="952" y2="400" stroke="#94A3B8" stroke-width="1.8"/>
    <path d="M986,310 C986,350 1070,360 1070,400" fill="none" stroke="#94A3B8" stroke-width="1.8"/>
    <text x="902" y="500" text-anchor="middle" fill="#7DD3FC" font-size="13" letter-spacing="2">1 CLIENT · N SERVERS</text>
  </g>
</svg>